<?xml version="1.0" standalone="no"?>
<!DOCTYPE svg PUBLIC "-//W3C//DTD SVG 1.1//EN" "http://www.w3.org/Graphics/SVG/1.1/DTD/svg11.dtd" >
<svg xmlns="http://www.w3.org/2000/svg">
<metadata></metadata>
<defs>
<font id="atari_st_8x16_system_fontMd" horiz-adv-x="800" >
<font-face units-per-em="1600" ascent="1400" descent="-200" />
<missing-glyph horiz-adv-x="500" />
<glyph d="M600 50v50h50h50v-50v-50h-50h-50v50zM400 50v50h50h50v-50v-50h-50h-50v50zM200 50v50h50h50v-50v-50h-50h-50v50zM0 50v50h50h50v-50v-50h-50h-50v50zM600 250v50h50h50v-50v-50h-50h-50v50zM0 250v50h50h50v-50v-50h-50h-50v50zM600 450v50h50h50v-50v-50h-50h-50v50z M0 450v50h50h50v-50v-50h-50h-50v50zM600 650v50h50h50v-50v-50h-50h-50v50zM0 650v50h50h50v-50v-50h-50h-50v50zM600 850v50h50h50v-50v-50h-50h-50v50zM0 850v50h50h50v-50v-50h-50h-50v50zM600 1050v50h50h50v-50v-50h-50h-50v50zM400 1050v50h50h50v-50v-50h-50h-50v50 zM200 1050v50h50h50v-50v-50h-50h-50v50zM0 1050v50h50h50v-50v-50h-50h-50v50z" />
<glyph d="M600 50v50h50h50v-50v-50h-50h-50v50zM400 50v50h50h50v-50v-50h-50h-50v50zM200 50v50h50h50v-50v-50h-50h-50v50zM0 50v50h50h50v-50v-50h-50h-50v50zM600 250v50h50h50v-50v-50h-50h-50v50zM0 250v50h50h50v-50v-50h-50h-50v50zM600 450v50h50h50v-50v-50h-50h-50v50z M0 450v50h50h50v-50v-50h-50h-50v50zM600 650v50h50h50v-50v-50h-50h-50v50zM0 650v50h50h50v-50v-50h-50h-50v50zM600 850v50h50h50v-50v-50h-50h-50v50zM0 850v50h50h50v-50v-50h-50h-50v50zM600 1050v50h50h50v-50v-50h-50h-50v50zM400 1050v50h50h50v-50v-50h-50h-50v50 zM200 1050v50h50h50v-50v-50h-50h-50v50zM0 1050v50h50h50v-50v-50h-50h-50v50z" />
<glyph unicode="&#xd;" d="M300 250v450h250h250v-100v-100h-150h-150v-350v-350h-100h-100v450z" />
<glyph d="M300 850v50h50h50v-50v-50h50h50v-50v-50h50h50v-50v-50h50h50v-100v-100h-50h-50v-50v-50h-50h-50v-50v-50h-50h-50v-50v-50h-50h-50v50v50h-50h-50v50v50h-50h-50v50v50h-50h-50v100v100h50h50v50v50h50h50v50v50h50h50v50z" />
<glyph d="M200 1150v50h50h50v-50v-50h50h50v50v50h50h50v-50v-50h50h50v-50v-50h-50h-50v-50v-50h50h50v-50v-50h-50h-50v-50v-50h50h50v-50v-50h-50h-50v-50v-50h50h50v-50v-50h-50h-50v-50v-50h50h50v-50v-50h-50h-50v-50v-50h50h50v-50v-50h-50h-50v50v50h-50h-50v-50v-50h-50 h-50v50v50h-50h-50v50v50h50h50v50v50h-50h-50v50v50h50h50v50v50h-50h-50v50v50h50h50v50v50h-50h-50v50v50h50h50v50v50h-50h-50v50v50h50h50v50v50h-50h-50v50zM500 1050v50h-50h-50v-50v-50h-50h-50v-50v-50h50h50v-50v-50h-50h-50v-50v-50h50h50v-50v-50h-50h-50v-50 v-50h50h50v-50v-50h-50h-50v-50v-50h50h50v-50v-50h-50h-50v-50v-50h50h50v50v50h50h50v50v50h-50h-50v50v50h50h50v50v50h-50h-50v50v50h50h50v50v50h-50h-50v50v50h50h50v50v50h-50h-50v50v50h50h50v50zM0 1350v50h50h50v-50v-50h50h50v50v50h50h50v-50v-50h50h50v50v50 h50h50v-50v-50h50h50v50v50h50h50v-50v-50h50h50v-50v-50h-50h-50v-50v-50h50h50v-50v-50h-50h-50v-50v-50h50h50v-50v-50h-50h-50v-50v-50h50h50v-50v-50h-50h-50v-50v-50h50h50v-50v-50h-50h-50v-50v-50h50h50v-50v-50h-50h-50v-50v-50h50h50v-50v-50h-50h-50v-50v-50h50 h50v-50v-50h-50h-50v50v50h-50h-50v-50v-50h-50h-50v50v50h-50h-50v-50v-50h-50h-50v50v50h-50h-50v-50v-50h-50h-50v50v50h-50h-50v50v50h50h50v50v50h-50h-50v50v50h50h50v50v50h-50h-50v50v50h50h50v50v50h-50h-50v50v50h50h50v50v50h-50h-50v50v50h50h50v50v50h-50h-50 v50v50h50h50v50v50h-50h-50v50v50h50h50v50v50h-50h-50v50zM300 1250v50h-50h-50v-50v-50h-50h-50v-50v-50h50h50v-50v-50h-50h-50v-50v-50h50h50v-50v-50h-50h-50v-50v-50h50h50v-50v-50h-50h-50v-50v-50h50h50v-50v-50h-50h-50v-50v-50h50h50v-50v-50h-50h-50v-50v-50h50 h50v-50v-50h-50h-50v-50v-50h50h50v50v50h50h50v-50v-50h50h50v50v50h50h50v-50v-50h50h50v50v50h50h50v50v50h-50h-50v50v50h50h50v50v50h-50h-50v50v50h50h50v50v50h-50h-50v50v50h50h50v50v50h-50h-50v50v50h50h50v50v50h-50h-50v50v50h50h50v50v50h-50h-50v50v50h50h50 v50v50h-50h-50v-50v-50h-50h-50v50v50h-50h-50v-50v-50h-50h-50v50z" />
<glyph d="M200 550v50h250h250v-50v-50h-100h-100v-200v-200h-50h-50v200v200h-100h-100v50zM100 950v250h50h50v-100v-100h100h100v100v100h50h50v-250v-250h-50h-50v100v100h-100h-100v-100v-100h-50h-50v250z" />
<glyph d="M300 350v250h200h200v-50v-50h-150h-150v-50v-50h100h100v-50v-50h-100h-100v-100v-100h-50h-50v250zM100 950v250h200h200v-50v-50h-150h-150v-50v-50h100h100v-50v-50h-100h-100v-100v-100h-50h-50v250z" />
<glyph d="M300 350v250h150h150v-50v-50h50h50v-50v-50h-50h-50v-100v-100h50h50v-50v-50h-50h-50v50v50h-50h-50v50v50h-50h-50v-100v-100h-50h-50v250zM600 450v50h-100h-100v-50v-50h100h100v50zM200 1150v50h150h150v-50v-50h-150h-150v-150v-150h150h150v-50v-50h-150h-150v50 v50h-50h-50v150v150h50h50v50z" />
<glyph d="M300 350v250h200h200v-50v-50h-150h-150v-50v-50h100h100v-50v-50h-100h-100v-100v-100h-50h-50v250zM100 950v250h50h50v-200v-200h150h150v-50v-50h-200h-200v250z" />
<glyph d="M200 1250v50h150h150v-50v-50h50h50v-150v-150h-50h-50v-50v-50h-150h-150v50v50h-50h-50v150v150h50h50v50zM400 1150v50h-50h-50v-50v-50h-50h-50v-50v-50h50h50v-50v-50h50h50v50v50h50h50v50v50h-50h-50v50z" />
<glyph d="M100 100v100h300h300v-100v-100h-300h-300v100zM300 950v150h100h100v-150v-150h100h100v-100v-100h-100h-100v-150v-150h-100h-100v150v150h-100h-100v100v100h100h100v150z" />
<glyph unicode="&#x9;" d="M300 350v250h50h50v-200v-200h150h150v-50v-50h-200h-200v250zM100 950v250h100h100v-50v-50h50h50v-200v-200h-50h-50v200v200h-50h-50v-200v-200h-50h-50v250z" />
<glyph unicode="&#xa;" d="M200 550v50h250h250v-50v-50h-100h-100v-200v-200h-50h-50v200v200h-100h-100v50zM100 1100v100h50h50v-100v-100h50h50v-100v-100h50h50v100v100h50h50v100v100h50h50v-100v-100h-50h-50v-100v-100h-50h-50v-50v-50h-50h-50v50v50h-50h-50v100v100h-50h-50v100z" />
<glyph d="M300 1050v350h100h100v-450v-450h-250h-250v100v100h150h150v350z" />
<glyph d="M0 600v100h250h250v-450v-450h-100h-100v350v350h-150h-150v100z" />
<glyph d="M300 950v450h100h100v-350v-350h150h150v-100v-100h-250h-250v450z" />
<glyph d="M300 1050v350h100h100v-350v-350h150h150v-100v-100h-150h-150v-350v-350h-100h-100v350v350h-150h-150v100v100h150h150v350z" />
<glyph d="M0 1200v100h400h400v-100v-100h-400h-400v100z" />
<glyph d="M0 900v100h400h400v-100v-100h-400h-400v100z" />
<glyph d="M0 600v100h400h400v-100v-100h-400h-400v100z" />
<glyph d="M0 300v100h400h400v-100v-100h-400h-400v100z" />
<glyph d="M0 0v100h400h400v-100v-100h-400h-400v100z" />
<glyph d="M300 600v800h100h100v-350v-350h150h150v-100v-100h-150h-150v-350v-350h-100h-100v800z" />
<glyph d="M300 1050v350h100h100v-800v-800h-100h-100v350v350h-150h-150v100v100h150h150v350z" />
<glyph d="M300 1050v350h100h100v-350v-350h150h150v-100v-100h-400h-400v100v100h150h150v350z" />
<glyph d="M0 600v100h400h400v-100v-100h-150h-150v-350v-350h-100h-100v350v350h-150h-150v100z" />
<glyph d="M300 600v800h100h100v-800v-800h-100h-100v800z" />
<glyph d="M0 100v100h350h350v-100v-100h-350h-350v100zM400 1150v50h150h150v-50v-50h-50h-50v-50v-50h-50h-50v-50v-50h-50h-50v-50v-50h-50h-50v-50v-50h50h50v-50v-50h50h50v-50v-50h50h50v-50v-50h50h50v-50v-50h-150h-150v50v50h-50h-50v50v50h-50h-50v50v50h-50h-50v50v50 h-50h-50v50v50h50h50v50v50h50h50v50v50h50h50v50v50h50h50v50z" />
<glyph d="M0 100v100h400h400v-100v-100h-400h-400v100zM0 1150v50h150h150v-50v-50h50h50v-50v-50h50h50v-50v-50h50h50v-50v-50h50h50v-50v-50h-50h-50v-50v-50h-50h-50v-50v-50h-50h-50v-50v-50h-50h-50v-50v-50h-150h-150v50v50h50h50v50v50h50h50v50v50h50h50v50v50h50h50v50 v50h-50h-50v50v50h-50h-50v50v50h-50h-50v50v50h-50h-50v50z" />
<glyph d="M0 800v100h350h350v-100v-100h-50h-50v-350v-350h-100h-100v350v350h-50h-50v-350v-350h-100h-100v350v350h-50h-50v100z" />
<glyph d="M100 500v100h300h300v-100v-100h-150h-150v-50v-50h-50h-50v-100v-100h-100h-100v100v100h50h50v50v50h-50h-50v100zM500 1200v100h100h100v-100v-100h-50h-50v-50v-50h50h50v-100v-100h-300h-300v100v100h150h150v50v50h50h50v100z" />
<glyph d="M400 1250v50h150h150v-100v-100h-100h-100v-50v-50h-50h-50v-200v-200h150h150v-50v-50h-150h-150v-150v-150h200h200v-100v-100h-400h-400v50v50h50h50v50v50h50h50v150v150h-100h-100v50v50h100h100v250v250h50h50v50v50h50h50v50z" />
<glyph d="M300 650v50h100h100v-50v-50h50h50v-100v-100h-50h-50v-50v-50h-100h-100v50v50h-50h-50v100v100h50h50v50z" />
<glyph unicode=" " />
<glyph unicode="!" d="M300 100v100h100h100v-100v-100h-100h-100v100zM300 800v400h100h100v-400v-400h-100h-100v400z" />
<glyph unicode="&#x22;" d="M500 900v300h100h100v-300v-300h-100h-100v300zM100 900v300h100h100v-300v-300h-100h-100v300z" />
<glyph unicode="#" d="M100 1100v100h100h100v-100v-100h100h100v100v100h100h100v-100v-100h50h50v-100v-100h-50h-50v-100v-100h50h50v-100v-100h-50h-50v-100v-100h-100h-100v100v100h-100h-100v-100v-100h-100h-100v100v100h-50h-50v100v100h50h50v100v100h-50h-50v100v100h50h50v100z M500 700v100h-100h-100v-100v-100h100h100v100z" />
<glyph unicode="$" d="M300 1300v100h100h100v-100v-100h100h100v-100v-100h-200h-200v-100v-100h150h150v-50v-50h50h50v-200v-200h-50h-50v-50v-50h-50h-50v-100v-100h-100h-100v100v100h-100h-100v100v100h200h200v100v100h-150h-150v50v50h-50h-50v200v200h50h50v50v50h50h50v100z" />
<glyph unicode="%" d="M500 350v150h100h100v-150v-150h-100h-100v150zM500 1100v100h100h100v-100v-100h-50h-50v-100v-100h-50h-50v-100v-100h-50h-50v-100v-100h-50h-50v-100v-100h-100h-100v100v100h50h50v100v100h50h50v100v100h50h50v100v100h50h50v100zM100 1050v150h100h100v-150v-150 h-100h-100v150z" />
<glyph unicode="&#x26;" d="M200 1350v50h150h150v-50v-50h50h50v-150v-150h-50h-50v-100v-100h-50h-50v-100v-100h150h150v-100v-100h-50h-50v-100v-100h50h50v-100v-100h-100h-100v50v50h-50h-50v-50v-50h-150h-150v50v50h-50h-50v250v250h50h50v100v100h50h50v100v100h-50h-50v150v150h50h50v50z M400 1100v100h-50h-50v-100v-100h50h50v100zM300 500v100h-50h-50v-200v-200h100h100v100v100h-50h-50v100z" />
<glyph unicode="'" d="M300 900v300h100h100v-300v-300h-100h-100v300z" />
<glyph unicode="(" d="M500 1150v50h100h100v-50v-50h-50h-50v-100v-100h-50h-50v-300v-300h50h50v-100v-100h50h50v-50v-50h-100h-100v50v50h-50h-50v50v50h-50h-50v400v400h50h50v50v50h50h50v50z" />
<glyph unicode=")" d="M100 1150v50h100h100v-50v-50h50h50v-50v-50h50h50v-400v-400h-50h-50v-50v-50h-50h-50v-50v-50h-100h-100v50v50h50h50v100v100h50h50v300v300h-50h-50v100v100h-50h-50v50z" />
<glyph unicode="*" d="M100 1100v100h100h100v-100v-100h100h100v100v100h100h100v-100v-100h-50h-50v-100v-100h100h100v-100v-100h-100h-100v-100v-100h50h50v-100v-100h-100h-100v100v100h-100h-100v-100v-100h-100h-100v100v100h50h50v100v100h-100h-100v100v100h100h100v100v100h-50h-50 v100z" />
<glyph unicode="+" d="M300 950v150h100h100v-150v-150h100h100v-100v-100h-100h-100v-150v-150h-100h-100v150v150h-100h-100v100v100h100h100v150z" />
<glyph unicode="," d="M300 200v200h100h100v-200v-200h-50h-50v-50v-50h-50h-50v-50v-50h-50h-50v100v100h50h50v200z" />
<glyph unicode="-" d="M100 700v100h300h300v-100v-100h-300h-300v100z" />
<glyph unicode="." d="M300 200v200h100h100v-200v-200h-100h-100v200z" />
<glyph unicode="/" d="M500 1050v150h100h100v-150v-150h-50h-50v-100v-100h-50h-50v-100v-100h-50h-50v-100v-100h-50h-50v-150v-150h-100h-100v150v150h50h50v100v100h50h50v100v100h50h50v100v100h50h50v150z" />
<glyph unicode="0" d="M200 1150v50h200h200v-50v-50h50h50v-500v-500h-50h-50v-50v-50h-200h-200v50v50h-50h-50v500v500h50h50v50zM500 850v150h-100h-100v-200v-200h50h50v-50v-50h-50h-50v-150v-150h100h100v200v200h-50h-50v50v50h50h50v150z" />
<glyph unicode="1" d="M300 1100v100h100h100v-500v-500h100h100v-100v-100h-300h-300v100v100h100h100v300v300h-50h-50v100v100h50h50v100z" />
<glyph unicode="2" d="M200 1150v50h200h200v-50v-50h50h50v-150v-150h-50h-50v-100v-100h-50h-50v-100v-100h-50h-50v-100v-100h150h150v-100v-100h-300h-300v100v100h50h50v100v100h50h50v100v100h50h50v100v100h50h50v100v100h-100h-100v-100v-100h-100h-100v150v150h50h50v50z" />
<glyph unicode="3" d="M100 1100v100h300h300v-100v-100h-50h-50v-100v-100h-50h-50v-100v-100h50h50v-100v-100h50h50v-150v-150h-50h-50v-50v-50h-200h-200v50v50h-50h-50v150v150h100h100v-100v-100h100h100v100v100h-50h-50v100v100h-50h-50v100v100h50h50v100v100h-150h-150v100z" />
<glyph unicode="4" d="M400 1100v100h100h100v-400v-400h50h50v-100v-100h-50h-50v-100v-100h-100h-100v100v100h-150h-150v200v200h50h50v100v100h50h50v100v100h50h50v100zM400 500v100h-50h-50v-100v-100h50h50v100z" />
<glyph unicode="5" d="M100 900v300h300h300v-100v-100h-200h-200v-100v-100h150h150v-50v-50h50h50v-300v-300h-50h-50v-50v-50h-200h-200v50v50h-50h-50v100v100h100h100v-50v-50h100h100v200v200h-200h-200v300z" />
<glyph unicode="6" d="M300 1150v50h150h150v-100v-100h-100h-100v-50v-50h-50h-50v-100v-100h150h150v-50v-50h50h50v-250v-250h-50h-50v-50v-50h-200h-200v50v50h-50h-50v450v450h50h50v50v50h50h50v50zM500 350v150h-100h-100v-150v-150h100h100v150z" />
<glyph unicode="7" d="M100 1100v100h300h300v-200v-200h-50h-50v-100v-100h-50h-50v-100v-100h-50h-50v-200v-200h-100h-100v200v200h50h50v100v100h50h50v100v100h50h50v100v100h-200h-200v100z" />
<glyph unicode="8" d="M200 1150v50h200h200v-50v-50h50h50v-150v-150h-50h-50v-100v-100h50h50v-250v-250h-50h-50v-50v-50h-200h-200v50v50h-50h-50v250v250h50h50v100v100h-50h-50v150v150h50h50v50zM500 900v100h-100h-100v-100v-100h100h100v100zM500 400v200h-100h-100v-200v-200h100h100 v200z" />
<glyph unicode="9" d="M200 1150v50h200h200v-50v-50h50h50v-450v-450h-50h-50v-50v-50h-50h-50v-50v-50h-150h-150v100v100h100h100v50v50h50h50v150v150h-150h-150v50v50h-50h-50v200v200h50h50v50zM500 900v100h-100h-100v-100v-100h100h100v100z" />
<glyph unicode=":" d="M300 200v200h100h100v-200v-200h-100h-100v200zM300 800v200h100h100v-200v-200h-100h-100v200z" />
<glyph unicode=";" d="M300 200v200h100h100v-200v-200h-50h-50v-50v-50h-50h-50v-50v-50h-50h-50v100v100h50h50v200zM300 800v200h100h100v-200v-200h-100h-100v200z" />
<glyph unicode="&#x3c;" d="M400 1050v50h150h150v-50v-50h-50h-50v-50v-50h-50h-50v-50v-50h-50h-50v-50v-50h-50h-50v-50v-50h50h50v-50v-50h50h50v-50v-50h50h50v-50v-50h50h50v-50v-50h-150h-150v50v50h-50h-50v50v50h-50h-50v50v50h-50h-50v50v50h-50h-50v50v50h50h50v50v50h50h50v50v50h50h50 v50v50h50h50v50z" />
<glyph unicode="=" d="M100 500v100h300h300v-100v-100h-300h-300v100zM100 900v100h300h300v-100v-100h-300h-300v100z" />
<glyph unicode="&#x3e;" d="M0 1050v50h150h150v-50v-50h50h50v-50v-50h50h50v-50v-50h50h50v-50v-50h50h50v-50v-50h-50h-50v-50v-50h-50h-50v-50v-50h-50h-50v-50v-50h-50h-50v-50v-50h-150h-150v50v50h50h50v50v50h50h50v50v50h50h50v50v50h50h50v50v50h-50h-50v50v50h-50h-50v50v50h-50h-50v50 v50h-50h-50v50z" />
<glyph unicode="?" d="M300 100v100h100h100v-100v-100h-100h-100v100zM200 1150v50h200h200v-50v-50h50h50v-150v-150h-50h-50v-100v-100h-50h-50v-150v-150h-100h-100v150v150h50h50v100v100h50h50v100v100h-100h-100v-100v-100h-100h-100v150v150h50h50v50z" />
<glyph unicode="@" d="M200 1150v50h150h150v-50v-50h50h50v-50v-50h50h50v-250v-250h-50h-50v-50v-50h-150h-150v200v200h100h100v-50v-50h50h50v100v100h-50h-50v50v50h-100h-100v-50v-50h-50h-50v-300v-300h50h50v-50v-50h150h150v50v50h50h50v-100v-100h-50h-50v-50v-50h-200h-200v50v50 h-50h-50v50v50h-50h-50v400v400h50h50v50v50h50h50v50zM500 600v100h-50h-50v-100v-100h50h50v100z" />
<glyph unicode="A" d="M300 1150v50h100h100v-50v-50h50h50v-50v-50h50h50v-500v-500h-100h-100v200v200h-100h-100v-200v-200h-100h-100v500v500h50h50v50v50h50h50v50zM500 750v150h-100h-100v-150v-150h100h100v150z" />
<glyph unicode="B" d="M100 600v600h250h250v-50v-50h50h50v-200v-200h-50h-50v-50v-50h50h50v-250v-250h-50h-50v-50v-50h-250h-250v600zM500 900v100h-100h-100v-100v-100h100h100v100zM500 400v200h-100h-100v-200v-200h100h100v200z" />
<glyph unicode="C" d="M200 1150v50h200h200v-50v-50h50h50v-150v-150h-100h-100v100v100h-100h-100v-400v-400h100h100v100v100h100h100v-150v-150h-50h-50v-50v-50h-200h-200v50v50h-50h-50v500v500h50h50v50z" />
<glyph unicode="D" d="M100 600v600h200h200v-50v-50h50h50v-50v-50h50h50v-400v-400h-50h-50v-50v-50h-50h-50v-50v-50h-200h-200v600zM400 950v50h-50h-50v-400v-400h50h50v50v50h50h50v300v300h-50h-50v50z" />
<glyph unicode="E" d="M100 600v600h300h300v-100v-100h-200h-200v-100v-100h150h150v-100v-100h-150h-150v-200v-200h200h200v-100v-100h-300h-300v600z" />
<glyph unicode="F" d="M100 600v600h300h300v-100v-100h-200h-200v-100v-100h150h150v-100v-100h-150h-150v-300v-300h-100h-100v600z" />
<glyph unicode="G" d="M200 1150v50h250h250v-100v-100h-200h-200v-400v-400h100h100v200v200h-50h-50v100v100h150h150v-350v-350h-50h-50v-50v-50h-200h-200v50v50h-50h-50v500v500h50h50v50z" />
<glyph unicode="H" d="M100 600v600h100h100v-200v-200h100h100v200v200h100h100v-600v-600h-100h-100v300v300h-100h-100v-300v-300h-100h-100v600z" />
<glyph unicode="I" d="M100 1100v100h300h300v-100v-100h-100h-100v-400v-400h100h100v-100v-100h-300h-300v100v100h100h100v400v400h-100h-100v100z" />
<glyph unicode="J" d="M500 700v500h100h100v-550v-550h-50h-50v-50v-50h-200h-200v50v50h-50h-50v150v150h100h100v-100v-100h100h100v500z" />
<glyph unicode="K" d="M0 600v600h100h100v-200v-200h50h50v100v100h50h50v100v100h100h100v-100v-100h-50h-50v-100v-100h-50h-50v-100v-100h50h50v-100v-100h50h50v-100v-100h50h50v-100v-100h-100h-100v100v100h-50h-50v100v100h-50h-50v100v100h-50h-50v-300v-300h-100h-100v600z" />
<glyph unicode="L" d="M100 600v600h100h100v-500v-500h200h200v-100v-100h-300h-300v600z" />
<glyph unicode="M" d="M0 600v600h100h100v-100v-100h50h50v-100v-100h50h50v100v100h50h50v100v100h100h100v-600v-600h-100h-100v350v350h-50h-50v-100v-100h-50h-50v100v100h-50h-50v-350v-350h-100h-100v600z" />
<glyph unicode="N" d="M100 600v600h100h100v-150v-150h50h50v-100v-100h50h50v250v250h100h100v-600v-600h-100h-100v150v150h-50h-50v100v100h-50h-50v-250v-250h-100h-100v600z" />
<glyph unicode="O" d="M200 1150v50h200h200v-50v-50h50h50v-500v-500h-50h-50v-50v-50h-200h-200v50v50h-50h-50v500v500h50h50v50zM500 600v400h-100h-100v-400v-400h100h100v400z" />
<glyph unicode="P" d="M100 600v600h250h250v-50v-50h50h50v-300v-300h-50h-50v-50v-50h-150h-150v-200v-200h-100h-100v600zM500 800v200h-100h-100v-200v-200h100h100v200z" />
<glyph unicode="Q" d="M200 1150v50h200h200v-50v-50h50h50v-450v-450h-50h-50v-50v-50h50h50v-50v-50h-100h-100v50v50h-50h-50v-50v-50h-100h-100v50v50h-50h-50v500v500h50h50v50zM500 650v350h-100h-100v-400v-400h50h50v50v50h50h50v-50v-50h50h50v50v50h-50h-50v350z" />
<glyph unicode="R" d="M0 600v600h250h250v-50v-50h50h50v-250v-250h-50h-50v-100v-100h50h50v-100v-100h50h50v-100v-100h-100h-100v100v100h-50h-50v100v100h-50h-50v50v50h-50h-50v-250v-250h-100h-100v600zM400 850v150h-100h-100v-150v-150h100h100v150z" />
<glyph unicode="S" d="M200 1150v50h250h250v-100v-100h-200h-200v-100v-100h50h50v-50v-50h50h50v-50v-50h50h50v-50v-50h50h50v-200v-200h-50h-50v-50v-50h-250h-250v100v100h200h200v100v100h-50h-50v50v50h-50h-50v50v50h-50h-50v50v50h-50h-50v200v200h50h50v50z" />
<glyph unicode="T" d="M100 1100v100h300h300v-100v-100h-100h-100v-500v-500h-100h-100v500v500h-100h-100v100z" />
<glyph unicode="U" d="M100 650v550h100h100v-500v-500h100h100v500v500h100h100v-550v-550h-50h-50v-50v-50h-200h-200v50v50h-50h-50v550z" />
<glyph unicode="V" d="M100 800v400h100h100v-400v-400h100h100v400v400h100h100v-400v-400h-50h-50v-100v-100h-50h-50v-100v-100h-100h-100v100v100h-50h-50v100v100h-50h-50v400z" />
<glyph unicode="W" d="M0 600v600h100h100v-350v-350h50h50v100v100h50h50v-100v-100h50h50v350v350h100h100v-600v-600h-50h-50v50v50h-50h-50v50v50h-50h-50v50v50h-50h-50v-50v-50h-50h-50v-50v-50h-50h-50v-50v-50h-50h-50v600z" />
<glyph unicode="X" d="M100 1050v150h100h100v-150v-150h100h100v150v150h100h100v-150v-150h-50h-50v-100v-100h-50h-50v-100v-100h50h50v-100v-100h50h50v-150v-150h-100h-100v150v150h-100h-100v-150v-150h-100h-100v150v150h50h50v100v100h50h50v100v100h-50h-50v100v100h-50h-50v150z" />
<glyph unicode="Y" d="M100 1000v200h100h100v-200v-200h100h100v200v200h100h100v-200v-200h-50h-50v-100v-100h-50h-50v-300v-300h-100h-100v300v300h-50h-50v100v100h-50h-50v200z" />
<glyph unicode="Z" d="M100 1100v100h300h300v-100v-100h-50h-50v-100v-100h-50h-50v-100v-100h-50h-50v-100v-100h-50h-50v-100v-100h200h200v-100v-100h-300h-300v200v200h50h50v100v100h50h50v100v100h50h50v100v100h-150h-150v100z" />
<glyph unicode="[" d="M300 600v600h200h200v-100v-100h-100h-100v-400v-400h100h100v-100v-100h-200h-200v600z" />
<glyph unicode="\" d="M100 1050v150h100h100v-150v-150h50h50v-100v-100h50h50v-100v-100h50h50v-100v-100h50h50v-150v-150h-100h-100v150v150h-50h-50v100v100h-50h-50v100v100h-50h-50v100v100h-50h-50v150z" />
<glyph unicode="]" d="M100 1100v100h200h200v-600v-600h-200h-200v100v100h100h100v400v400h-100h-100v100z" />
<glyph unicode="^" d="M300 1200v100h50h50v-100v-100h50h50v-100v-100h50h50v-100v-100h50h50v-100v-100h-100h-100v100v100h-50h-50v100v100h-50h-50v-100v-100h-50h-50v-100v-100h-100h-100v100v100h50h50v100v100h50h50v100v100h50h50v100z" />
<glyph unicode="_" d="M0 100v100h350h350v-100v-100h-350h-350v100z" />
<glyph unicode="`" d="M100 1250v150h50h50v-50v-50h50h50v-50v-50h50h50v-50v-50h50h50v-50v-50h50h50v-150v-150h-50h-50v50v50h-50h-50v50v50h-50h-50v50v50h-50h-50v50v50h-50h-50v150z" />
<glyph unicode="a" d="M200 800v100h200h200v-50v-50h50h50v-400v-400h-250h-250v50v50h-50h-50v200v200h50h50v50v50h150h150v50v50h-150h-150v100zM500 300v100h-100h-100v-100v-100h100h100v100z" />
<glyph unicode="b" d="M100 600v600h100h100v-150v-150h150h150v-50v-50h50h50v-350v-350h-50h-50v-50v-50h-250h-250v600zM500 450v250h-100h-100v-250v-250h100h100v250z" />
<glyph unicode="c" d="M200 850v50h200h200v-100v-100h-150h-150v-250v-250h200h200v-100v-100h-250h-250v50v50h-50h-50v350v350h50h50v50z" />
<glyph unicode="d" d="M500 1050v150h100h100v-600v-600h-250h-250v50v50h-50h-50v350v350h50h50v50v50h150h150v150zM500 450v250h-100h-100v-250v-250h100h100v250z" />
<glyph unicode="e" d="M200 850v50h200h200v-50v-50h50h50v-200v-200h-200h-200v-100v-100h200h200v-100v-100h-250h-250v50v50h-50h-50v350v350h50h50v50zM500 600v100h-100h-100v-100v-100h100h100v100z" />
<glyph unicode="f" d="M400 1150v50h150h150v-100v-100h-100h-100v-100v-100h100h100v-100v-100h-100h-100v-300v-300h-100h-100v300v300h-100h-100v100v100h100h100v150v150h50h50v50z" />
<glyph unicode="g" d="M200 850v50h250h250v-500v-500h-50h-50v-50v-50h-250h-250v100v100h200h200v50v50h-150h-150v50v50h-50h-50v300v300h50h50v50zM500 500v200h-100h-100v-200v-200h100h100v200z" />
<glyph unicode="h" d="M100 600v600h100h100v-150v-150h150h150v-50v-50h50h50v-400v-400h-100h-100v350v350h-100h-100v-350v-350h-100h-100v600z" />
<glyph unicode="i" d="M200 800v100h150h150v-350v-350h50h50v-100v-100h-200h-200v100v100h50h50v250v250h-50h-50v100zM300 1100v100h100h100v-100v-100h-100h-100v100z" />
<glyph unicode="j" d="M400 450v450h100h100v-500v-500h-50h-50v-50v-50h-200h-200v100v100h150h150v450zM400 1100v100h100h100v-100v-100h-100h-100v100z" />
<glyph unicode="k" d="M0 600v600h100h100v-250v-250h50h50v50v50h50h50v50v50h100h100v-100v-100h-50h-50v-50v-50h-50h-50v-50v-50h50h50v-100v-100h50h50v-50v-50h50h50v-100v-100h-100h-100v50v50h-50h-50v100v100h-50h-50v50v50h-50h-50v-200v-200h-100h-100v600z" />
<glyph unicode="l" d="M200 1100v100h150h150v-500v-500h50h50v-100v-100h-200h-200v100v100h50h50v400v400h-50h-50v100z" />
<glyph unicode="m" d="M100 850v50h100h100v-50v-50h50h50v50v50h100h100v-50v-50h50h50v-400v-400h-100h-100v300v300h-50h-50v-150v-150h-50h-50v150v150h-50h-50v-300v-300h-100h-100v400v400h50h50v50z" />
<glyph unicode="n" d="M200 850v50h200h200v-50v-50h50h50v-400v-400h-100h-100v350v350h-100h-100v-350v-350h-100h-100v400v400h50h50v50z" />
<glyph unicode="o" d="M200 850v50h200h200v-50v-50h50h50v-350v-350h-50h-50v-50v-50h-200h-200v50v50h-50h-50v350v350h50h50v50zM500 450v250h-100h-100v-250v-250h100h100v250z" />
<glyph unicode="p" d="M100 350v550h250h250v-50v-50h50h50v-350v-350h-50h-50v-50v-50h-150h-150v-100v-100h-100h-100v550zM500 450v250h-100h-100v-250v-250h100h100v250z" />
<glyph unicode="q" d="M200 850v50h250h250v-550v-550h-100h-100v100v100h-150h-150v50v50h-50h-50v350v350h50h50v50zM500 450v250h-100h-100v-250v-250h100h100v250z" />
<glyph unicode="r" d="M100 450v450h250h250v-50v-50h50h50v-100v-100h-100h-100v50v50h-100h-100v-350v-350h-100h-100v450z" />
<glyph unicode="s" d="M200 850v50h250h250v-100v-100h-200h-200v-50v-50h50h50v-50v-50h100h100v-50v-50h50h50v-150v-150h-50h-50v-50v-50h-250h-250v100v100h200h200v50v50h-50h-50v50v50h-100h-100v50v50h-50h-50v150v150h50h50v50z" />
<glyph unicode="t" d="M300 1000v100h100h100v-100v-100h100h100v-100v-100h-100h-100v-250v-250h100h100v-100v-100h-150h-150v50v50h-50h-50v300v300h-100h-100v100v100h100h100v100z" />
<glyph unicode="u" d="M100 500v400h100h100v-350v-350h100h100v350v350h100h100v-450v-450h-250h-250v50v50h-50h-50v400z" />
<glyph unicode="v" d="M100 650v250h100h100v-250v-250h100h100v250v250h100h100v-250v-250h-50h-50v-100v-100h-50h-50v-100v-100h-100h-100v100v100h-50h-50v100v100h-50h-50v250z" />
<glyph unicode="w" d="M0 450v450h100h100v-200v-200h50h50v100v100h50h50v-100v-100h50h50v200v200h100h100v-450v-450h-50h-50v50v50h-50h-50v50v50h-50h-50v50v50h-50h-50v-50v-50h-50h-50v-50v-50h-50h-50v-50v-50h-50h-50v450z" />
<glyph unicode="x" d="M100 800v100h100h100v-100v-100h100h100v100v100h100h100v-100v-100h-50h-50v-100v-100h-50h-50v-50v-50h50h50v-100v-100h50h50v-100v-100h-100h-100v100v100h-100h-100v-100v-100h-100h-100v100v100h50h50v100v100h50h50v50v50h-50h-50v100v100h-50h-50v100z" />
<glyph unicode="y" d="M100 550v350h100h100v-300v-300h100h100v300v300h100h100v-500v-500h-50h-50v-50v-50h-250h-250v100v100h200h200v50v50h-150h-150v50v50h-50h-50v350z" />
<glyph unicode="z" d="M100 800v100h300h300v-100v-100h-50h-50v-50v-50h-50h-50v-100v-100h-50h-50v-100v-100h150h150v-100v-100h-300h-300v100v100h50h50v100v100h50h50v100v100h50h50v50v50h-150h-150v100z" />
<glyph unicode="{" d="M400 1250v50h150h150v-50v-50h-100h-100v-250v-250h-50h-50v-100v-100h50h50v-250v-250h100h100v-50v-50h-150h-150v50v50h-50h-50v200v200h-50h-50v50v50h-100h-100v100v100h100h100v50v50h50h50v200v200h50h50v50z" />
<glyph unicode="|" d="M300 600v700h100h100v-700v-700h-100h-100v700z" />
<glyph unicode="}" d="M0 1250v50h150h150v-50v-50h50h50v-200v-200h50h50v-50v-50h100h100v-100v-100h-100h-100v-50v-50h-50h-50v-200v-200h-50h-50v-50v-50h-150h-150v50v50h100h100v250v250h50h50v100v100h-50h-50v250v250h-100h-100v50z" />
<glyph unicode="~" d="M100 850v50h100h100v-50v-50h50h50v-50v-50h100h100v100v100h50h50v-150v-150h-50h-50v-50v-50h-150h-150v50v50h-50h-50v50v50h-50h-50v-100v-100h-50h-50v150v150h50h50v50z" />
<glyph d="M300 800v100h100h100v-100v-100h50h50v-100v-100h50h50v-100v-100h50h50v-100v-100h-400h-400v100v100h50h50v100v100h50h50v100v100h50h50v100zM500 500v100h-100h-100v-100v-100h-50h-50v-100v-100h200h200v100v100h-50h-50v100z" />
<glyph d="M0 1200v100h350h350v-100v-100h-350h-350v100z" />
<glyph d="M300 1050v50h100h100v-50v-50h50h50v-50v-50h50h50v-50v-50h50h50v-150v-150h-100h-100v-200v-200h-200h-200v200v200h-100h-100v150v150h50h50v50v50h50h50v50v50h50h50v50zM500 850v50h-100h-100v-50v-50h-50h-50v-50v-50h-50h-50v-50v-50h100h100v-200v-200h100h100 v200v200h100h100v50v50h-50h-50v50v50h-50h-50v50z" />
<glyph d="M200 900v200h200h200v-200v-200h100h100v-150v-150h-50h-50v-50v-50h-50h-50v-50v-50h-50h-50v-50v-50h-100h-100v50v50h-50h-50v50v50h-50h-50v50v50h-50h-50v150v150h100h100v200zM500 800v200h-100h-100v-200v-200h-100h-100v-50v-50h50h50v-50v-50h50h50v-50v-50h100 h100v50v50h50h50v50v50h50h50v50v50h-100h-100v200z" />
<glyph d="M200 1050v150h100h100v-50v-50h50h50v-50v-50h50h50v-50v-50h50h50v-50v-50h50h50v-100v-100h-50h-50v-50v-50h-50h-50v-50v-50h-50h-50v-50v-50h-50h-50v-50v-50h-100h-100v150v150h-100h-100v200v200h100h100v150zM400 950v50h-50h-50v-100v-100h-100h-100v-100v-100 h100h100v-100v-100h50h50v50v50h50h50v50v50h50h50v100v100h-50h-50v50v50h-50h-50v50z" />
<glyph d="M400 1150v50h100h100v-150v-150h100h100v-200v-200h-100h-100v-150v-150h-100h-100v50v50h-50h-50v50v50h-50h-50v50v50h-50h-50v50v50h-50h-50v100v100h50h50v50v50h50h50v50v50h50h50v50v50h50h50v50zM500 900v100h-50h-50v-50v-50h-50h-50v-50v-50h-50h-50v-100v-100 h50h50v-50v-50h50h50v-50v-50h50h50v100v100h100h100v100v100h-100h-100v100z" />
<glyph unicode="&#x85;" d="M300 500v100h50h50v-100v-100h50h50v-100v-100h50h50v-50v-50h-250h-250v50v50h50h50v100v100h50h50v100zM600 900v100h50h50v-350v-350h-50h-50v100v100h-50h-50v150v150h50h50v100zM0 650v350h50h50v-100v-100h50h50v-150v-150h-50h-50v-100v-100h-50h-50v350z M100 1150v50h250h250v-50v-50h-50h-50v-100v-100h-50h-50v-100v-100h-50h-50v100v100h-50h-50v100v100h-50h-50v50z" />
<glyph d="M600 500v100h50h50v-250v-250h-150h-150v50v50h50h50v100v100h50h50v100zM0 650v550h350h350v-150v-150h-50h-50v-100v-100h-50h-50v-100v-100h-50h-50v-100v-100h-50h-50v-100v-100h-150h-150v550z" />
<glyph d="M600 500v100h50h50v-250v-250h-150h-150v50v50h50h50v100v100h50h50v100zM0 350v250h50h50v-100v-100h50h50v-100v-100h50h50v-50v-50h-150h-150v250zM300 900v100h50h50v-100v-100h50h50v-150v-150h-50h-50v-100v-100h-50h-50v100v100h-50h-50v150v150h50h50v100z M400 1150v50h150h150v-250v-250h-50h-50v100v100h-50h-50v100v100h-50h-50v50zM0 950v250h150h150v-50v-50h-50h-50v-100v-100h-50h-50v-100v-100h-50h-50v250z" />
<glyph d="M700 1100v100h50h50v-200v-200h-50h-50v-100v-100h-50h-50v-100v-100h-50h-50v-100v-100h-50h-50v-100v-100h-50h-50v-50v-50h-50h-50v100v100h-50h-50v100v100h-50h-50v150v150h50h50v-100v-100h50h50v-100v-100h50h50v100v100h50h50v100v100h50h50v100v100h50h50v100 v100h50h50v100z" />
<glyph d="M300 650v150h50h50v-100v-100h100h100v-50v-50h-150h-150v150zM200 1050v50h200h200v-50v-50h50h50v-50v-50h50h50v-300v-300h-50h-50v-50v-50h-50h-50v-50v-50h-200h-200v50v50h-50h-50v50v50h-50h-50v300v300h50h50v50v50h50h50v50zM500 950v50h-100h-100v-50v-50h-50 h-50v-50v-50h-50h-50v-200v-200h50h50v-50v-50h50h50v-50v-50h100h100v50v50h50h50v50v50h50h50v200v200h-50h-50v50v50h-50h-50v50z" />
<glyph d="M300 950v50h100h100v-50v-50h50h50v-250v-250h50h50v-50v-50h50h50v-50v-50h-200h-200v-50v-50h50h50v-50v-50h-50h-50v-50v-50h-50h-50v50v50h-50h-50v50v50h50h50v50v50h-150h-150v50v50h50h50v50v50h50h50v250v250h50h50v50z" />
<glyph d="M400 900v300h50h50v-50v-50h100h100v-50v-50h50h50v-100v-100h-50h-50v50v50h-100h-100v-250v-250h-50h-50v-50v-50h-150h-150v50v50h-50h-50v50v50h50h50v50v50h150h150v300z" />
<glyph d="M300 350v250h200h200v-50v-50h-150h-150v-50v-50h100h100v-50v-50h-100h-100v-100v-100h-50h-50v250zM100 950v250h200h200v-50v-50h-150h-150v-50v-50h100h100v-50v-50h-100h-100v-100v-100h-50h-50v250z" />
<glyph d="M300 350v250h150h150v-50v-50h50h50v-50v-50h-50h-50v-100v-100h50h50v-50v-50h-50h-50v50v50h-50h-50v50v50h-50h-50v-100v-100h-50h-50v250zM600 450v50h-100h-100v-50v-50h100h100v50zM200 1150v50h150h150v-50v-50h-150h-150v-150v-150h150h150v-50v-50h-150h-150v50 v50h-50h-50v150v150h50h50v50z" />
<glyph />
<glyph />
<glyph d="M0 350v250h50h50v-50v-50h50h50v-150v-150h150h150v150v150h50h50v50v50h50h50v-250v-250h-50h-50v-50v-50h-250h-250v50v50h-50h-50v250zM200 150v50h-50h-50v-50v-50h50h50v50zM600 150v50h-50h-50v-50v-50h50h50v50zM100 1250v50h250h250v-50v-50h50h50v-250v-250h-50 h-50v50v50h-50h-50v150v150h-150h-150v-150v-150h-50h-50v-50v-50h-50h-50v250v250h50h50v50zM200 1150v50h-50h-50v-50v-50h50h50v50zM600 1150v50h-50h-50v-50v-50h50h50v50z" />
<glyph d="M600 550v50h50h50v-250v-250h-50h-50v50v50h-50h-50v150v150h50h50v50zM600 1150v50h50h50v-250v-250h-50h-50v50v50h-50h-50v150v150h50h50v50z" />
<glyph d="M100 1250v50h250h250v-50v-50h50h50v-250v-250h-50h-50v-50v-50h-50h-50v-50v-50h-150h-150v-150v-150h150h150v-50v-50h50h50v-50v-50h-250h-250v50v50h-50h-50v250v250h50h50v50v50h50h50v50v50h150h150v150v150h-150h-150v50v50h-50h-50v50zM600 1150v50h-50h-50v-50 v-50h50h50v50zM600 750v50h-50h-50v-50v-50h50h50v50zM200 550v50h-50h-50v-50v-50h50h50v50zM200 150v50h-50h-50v-50v-50h50h50v50z" />
<glyph d="M100 1250v50h250h250v-50v-50h50h50v-250v-250h-50h-50v-50v-50h50h50v-250v-250h-50h-50v-50v-50h-250h-250v50v50h50h50v50v50h150h150v150v150h-150h-150v50v50h-50h-50v50v50h50h50v50v50h150h150v150v150h-150h-150v50v50h-50h-50v50zM600 1150v50h-50h-50v-50v-50 h50h50v50zM600 750v50h-50h-50v-50v-50h50h50v50zM600 550v50h-50h-50v-50v-50h50h50v50zM600 150v50h-50h-50v-50v-50h50h50v50z" />
<glyph d="M0 950v250h50h50v-50v-50h50h50v-150v-150h150h150v150v150h50h50v50v50h50h50v-250v-250h-50h-50v-50v-50h50h50v-250v-250h-50h-50v50v50h-50h-50v150v150h-150h-150v50v50h-50h-50v50v50h-50h-50v250zM200 750v50h-50h-50v-50v-50h50h50v50zM600 750v50h-50h-50v-50 v-50h50h50v50zM600 550v50h-50h-50v-50v-50h50h50v50z" />
<glyph d="M100 1250v50h250h250v-50v-50h-50h-50v-50v-50h-150h-150v-150v-150h150h150v-50v-50h50h50v-50v-50h50h50v-250v-250h-50h-50v-50v-50h-250h-250v50v50h50h50v50v50h150h150v150v150h-150h-150v50v50h-50h-50v50v50h-50h-50v250v250h50h50v50zM200 1150v50h-50h-50v-50 v-50h50h50v50zM200 750v50h-50h-50v-50v-50h50h50v50zM600 550v50h-50h-50v-50v-50h50h50v50zM600 150v50h-50h-50v-50v-50h50h50v50z" />
<glyph d="M100 1250v50h250h250v-50v-50h-50h-50v-50v-50h-150h-150v-150v-150h150h150v-50v-50h50h50v-50v-50h50h50v-250v-250h-50h-50v-50v-50h-250h-250v50v50h-50h-50v250v250h50h50v50v50h-50h-50v250v250h50h50v50zM200 1150v50h-50h-50v-50v-50h50h50v50zM200 750v50h-50 h-50v-50v-50h50h50v50zM200 550v50h-50h-50v-50v-50h50h50v-150v-150h-50h-50v-50v-50h50h50v50v50h150h150v-50v-50h50h50v50v50h-50h-50v150v150h50h50v50v50h-50h-50v-50v-50h-150h-150v50z" />
<glyph d="M600 550v50h50h50v-250v-250h-50h-50v50v50h-50h-50v150v150h50h50v50zM100 1250v50h250h250v-50v-50h50h50v-250v-250h-50h-50v50v50h-50h-50v150v150h-150h-150v-150v-150h-50h-50v-50v-50h-50h-50v250v250h50h50v50zM200 1150v50h-50h-50v-50v-50h50h50v50zM600 1150 v50h-50h-50v-50v-50h50h50v50z" />
<glyph d="M100 1250v50h250h250v-50v-50h50h50v-250v-250h-50h-50v-50v-50h50h50v-250v-250h-50h-50v-50v-50h-250h-250v50v50h-50h-50v250v250h50h50v50v50h-50h-50v250v250h50h50v50zM200 1150v50h-50h-50v-50v-50h50h50v-150v-150h-50h-50v-50v-50h50h50v50v50h150h150v-50v-50 h50h50v50v50h-50h-50v150v150h50h50v50v50h-50h-50v-50v-50h-150h-150v50zM200 550v50h-50h-50v-50v-50h50h50v-150v-150h-50h-50v-50v-50h50h50v50v50h150h150v-50v-50h50h50v50v50h-50h-50v150v150h50h50v50v50h-50h-50v-50v-50h-150h-150v50z" />
<glyph d="M100 1250v50h250h250v-50v-50h50h50v-250v-250h-50h-50v-50v-50h50h50v-250v-250h-50h-50v-50v-50h-250h-250v50v50h50h50v50v50h150h150v150v150h-150h-150v50v50h-50h-50v50v50h-50h-50v250v250h50h50v50zM200 1150v50h-50h-50v-50v-50h50h50v-150v-150h-50h-50v-50 v-50h50h50v50v50h150h150v-50v-50h50h50v50v50h-50h-50v150v150h50h50v50v50h-50h-50v-50v-50h-150h-150v50zM600 550v50h-50h-50v-50v-50h50h50v50zM600 150v50h-50h-50v-50v-50h50h50v50z" />
<glyph d="M100 800v100h250h250v-50v-50h50h50v-350v-350h-50h-50v-50v-50h-200h-200v50v50h-50h-50v200v200h200h200v100v100h-200h-200v100zM500 300v100h-100h-100v-100v-100h100h100v100z" />
<glyph d="M400 550v50h150h150v-50v-50h-150h-150v-50v-50h100h100v-50v-50h50h50v-50v-50h-50h-50v-50v-50h-150h-150v50v50h150h150v50v50h-100h-100v50v50h-50h-50v50v50h50h50v50zM100 950v250h200h200v-50v-50h-150h-150v-50v-50h100h100v-50v-50h-100h-100v-50v-50h150h150 v-50v-50h-200h-200v250z" />
<glyph />
<glyph />
<glyph />
<glyph d="M400 1150v50h150h150v-100v-100h-100h-100v-150v-150h100h100v-50v-50h-100h-100v-250v-250h-50h-50v-50v-50h-50h-50v-50v-50h-100h-100v100v100h100h100v250v250h-100h-100v50v50h100h100v200v200h50h50v50z" />
<glyph unicode="&#xa0;" />
<glyph unicode="&#xa1;" d="M300 350v450h100h100v-450v-450h-100h-100v450zM300 1000v100h100h100v-100v-100h-100h-100v100z" />
<glyph unicode="&#xa2;" d="M300 1100v100h100h100v-100v-100h50h50v-50v-50h50h50v-100v-100h-100h-100v50v50h-100h-100v-200v-200h100h100v50v50h100h100v-100v-100h-50h-50v-50v-50h-50h-50v-100v-100h-100h-100v100v100h-50h-50v50v50h-50h-50v300v300h50h50v50v50h50h50v100z" />
<glyph unicode="&#xa3;" d="M400 1250v50h150h150v-100v-100h-100h-100v-50v-50h-50h-50v-200v-200h150h150v-50v-50h-150h-150v-150v-150h200h200v-100v-100h-400h-400v50v50h50h50v50v50h50h50v150v150h-100h-100v50v50h100h100v250v250h50h50v50v50h50h50v50z" />
<glyph unicode="&#xa5;" d="M100 950v250h100h100v-200v-200h100h100v200v200h100h100v-250v-250h-50h-50v-50v-50h-50h-50v-50v-50h100h100v-50v-50h-100h-100v-200v-200h-100h-100v200v200h-100h-100v50v50h100h100v50v50h-50h-50v50v50h-50h-50v250z" />
<glyph unicode="&#xa7;" d="M300 1150v50h150h150v-50v-50h50h50v-100v-100h-50h-50v50v50h-50h-50v50v50h-50h-50v-100v-100h50h50v-50v-50h50h50v-50v-50h50h50v-100v-100h-50h-50v-50v-50h-50h-50v-50v-50h50h50v-100v-100h-50h-50v-50v-50h-150h-150v50v50h-50h-50v100v100h50h50v-50v-50h50h50 v-50v-50h50h50v100v100h-50h-50v50v50h-50h-50v50v50h-50h-50v100v100h50h50v50v50h50h50v50v50h-50h-50v100v100h50h50v50zM500 600v100h-100h-100v-100v-100h100h100v100z" />
<glyph unicode="&#xa9;" d="M200 650v250h150h150v-50v-50h-100h-100v-150v-150h100h100v-50v-50h-150h-150v250zM100 1150v50h250h250v-50v-50h50h50v-450v-450h-50h-50v-50v-50h-250h-250v50v50h-50h-50v450v450h50h50v50zM500 1050v50h-150h-150v-50v-50h-50h-50v-350v-350h50h50v-50v-50h150h150 v50v50h50h50v350v350h-50h-50v50z" />
<glyph unicode="&#xaa;" d="M100 -50v50h300h300v-50v-50h-300h-300v50zM200 900v100h200h200v-50v-50h50h50v-400v-400h-250h-250v50v50h-50h-50v200v200h50h50v50v50h150h150v50v50h-150h-150v100zM500 400v100h-100h-100v-100v-100h100h100v100z" />
<glyph unicode="&#xab;" d="M300 750v50h100h100v-50v-50h50h50v50v50h50h50v-100v-100h-50h-50v-50v-50h-50h-50v-50v-50h50h50v-50v-50h50h50v-100v-100h-50h-50v50v50h-50h-50v-50v-50h-100h-100v50v50h-50h-50v50v50h-50h-50v50v50h-50h-50v50v50h50h50v50v50h50h50v50v50h50h50v50zM500 650v50 h-50h-50v-50v-50h-50h-50v-50v-50h-50h-50v-50v-50h50h50v-50v-50h50h50v-50v-50h50h50v50v50h-50h-50v50v50h-50h-50v50v50h50h50v50v50h50h50v50z" />
<glyph unicode="&#xac;" d="M100 400v100h300h300v-250v-250h-100h-100v150v150h-200h-200v100z" />
<glyph unicode="&#xad;" d="M200 400v100h200h200v-100v-100h-200h-200v100z" />
<glyph unicode="&#xae;" d="M200 650v250h150h150v-100v-100h-50h-50v-50v-50h50h50v-100v-100h-50h-50v50v50h-50h-50v-50v-50h-50h-50v250zM400 750v50h-50h-50v-50v-50h50h50v50zM100 1150v50h250h250v-50v-50h50h50v-450v-450h-50h-50v-50v-50h-250h-250v50v50h-50h-50v450v450h50h50v50z M500 1050v50h-150h-150v-50v-50h-50h-50v-350v-350h50h50v-50v-50h150h150v50v50h50h50v350v350h-50h-50v50z" />
<glyph unicode="&#xaf;" d="M0 1200v100h350h350v-100v-100h-350h-350v100z" />
<glyph unicode="&#xb0;" d="M200 1250v50h150h150v-50v-50h50h50v-150v-150h-50h-50v-50v-50h-150h-150v50v50h-50h-50v150v150h50h50v50zM400 1150v50h-50h-50v-50v-50h-50h-50v-50v-50h50h50v-50v-50h50h50v50v50h50h50v50v50h-50h-50v50z" />
<glyph unicode="&#xb1;" d="M100 100v100h300h300v-100v-100h-300h-300v100zM300 950v150h100h100v-150v-150h100h100v-100v-100h-100h-100v-150v-150h-100h-100v150v150h-100h-100v100v100h100h100v150z" />
<glyph unicode="&#xb2;" d="M200 1150v50h100h100v-50v-50h50h50v-100v-100h-50h-50v-50v-50h-50h-50v-50v-50h100h100v-50v-50h-200h-200v100v100h50h50v50v50h50h50v50v50h50h50v50v50h-100h-100v-50v-50h-50h-50v50v50h50h50v50z" />
<glyph unicode="&#xb3;" d="M100 1150v50h200h200v-100v-100h-50h-50v-50v-50h50h50v-100v-100h-50h-50v-50v-50h-100h-100v50v50h-50h-50v50v50h50h50v-50v-50h100h100v50v50h-50h-50v50v50h-50h-50v50v50h50h50v50v50h-100h-100v50z" />
<glyph unicode="&#xb5;" d="M100 500v400h100h100v-300v-300h100h100v300v300h100h100v-300v-300h50h50v-100v-100h-50h-50v50v50h-50h-50v-50v-50h-150h-150v50v50h-50h-50v-100v-100h-50h-50v-50v-50h-50h-50v100v100h50h50v400z" />
<glyph unicode="&#xb6;" d="M600 600v600h50h50v-600v-600h-50h-50v600zM100 1150v50h200h200v-600v-600h-50h-50v250v250h-150h-150v50v50h-50h-50v250v250h50h50v50zM400 850v250h-100h-100v-250v-250h100h100v250z" />
<glyph unicode="&#xb7;" d="M300 650v50h100h100v-50v-50h50h50v-100v-100h-50h-50v-50v-50h-100h-100v50v50h-50h-50v100v100h50h50v50z" />
<glyph unicode="&#xb9;" d="M100 1150v50h100h100v-300v-300h-50h-50v250v250h-50h-50v50z" />
<glyph unicode="&#xba;" d="M100 -50v50h300h300v-50v-50h-300h-300v50zM200 950v50h200h200v-50v-50h50h50v-350v-350h-50h-50v-50v-50h-200h-200v50v50h-50h-50v350v350h50h50v50zM500 550v250h-100h-100v-250v-250h100h100v250z" />
<glyph unicode="&#xbb;" d="M0 700v100h50h50v-50v-50h50h50v50v50h100h100v-50v-50h50h50v-50v-50h50h50v-50v-50h50h50v-50v-50h-50h-50v-50v-50h-50h-50v-50v-50h-50h-50v-50v-50h-100h-100v50v50h-50h-50v-50v-50h-50h-50v100v100h50h50v50v50h50h50v50v50h-50h-50v50v50h-50h-50v100zM300 650 v50h-50h-50v-50v-50h50h50v-50v-50h50h50v-50v-50h-50h-50v-50v-50h-50h-50v-50v-50h50h50v50v50h50h50v50v50h50h50v50v50h-50h-50v50v50h-50h-50v50z" />
<glyph unicode="&#xbf;" d="M300 750v150h100h100v-150v-150h-50h-50v-100v-100h-50h-50v-100v-100h100h100v100v100h100h100v-150v-150h-50h-50v-50v-50h-200h-200v50v50h-50h-50v150v150h50h50v100v100h50h50v150zM300 1100v100h100h100v-100v-100h-100h-100v100z" />
<glyph unicode="&#xc0;" d="M200 950v50h200h200v-50v-50h50h50v-450v-450h-100h-100v200v200h-100h-100v-200v-200h-100h-100v450v450h50h50v50zM500 700v100h-100h-100v-100v-100h100h100v100zM100 1350v50h100h100v-50v-50h50h50v-50v-50h50h50v-50v-50h-100h-100v50v50h-50h-50v50v50h-50h-50v50 z" />
<glyph unicode="&#xc1;" d="M200 950v50h200h200v-50v-50h50h50v-450v-450h-100h-100v200v200h-100h-100v-200v-200h-100h-100v450v450h50h50v50zM500 700v100h-100h-100v-100v-100h100h100v100zM500 1350v50h100h100v-50v-50h-50h-50v-50v-50h-50h-50v-50v-50h-100h-100v50v50h50h50v50v50h50h50v50 z" />
<glyph unicode="&#xc2;" d="M200 950v50h200h200v-50v-50h50h50v-450v-450h-100h-100v200v200h-100h-100v-200v-200h-100h-100v450v450h50h50v50zM500 700v100h-100h-100v-100v-100h100h100v100zM300 1350v50h100h100v-50v-50h50h50v-50v-50h50h50v-50v-50h-100h-100v50v50h-100h-100v-50v-50h-100 h-100v50v50h50h50v50v50h50h50v50z" />
<glyph unicode="&#xc3;" d="M200 950v50h200h200v-50v-50h50h50v-450v-450h-100h-100v200v200h-100h-100v-200v-200h-100h-100v450v450h50h50v50zM500 700v100h-100h-100v-100v-100h100h100v100zM200 1350v50h100h100v-50v-50h50h50v-50v-50h50h50v100v100h50h50v-100v-100h-50h-50v-50v-50h-100 h-100v50v50h-100h-100v-50v-50h-50h-50v100v100h50h50v50z" />
<glyph unicode="&#xc4;" d="M100 1200v100h100h100v-100v-100h100h100v100v100h100h100v-100v-100h-100h-100v-50v-50h50h50v-50v-50h50h50v-450v-450h-100h-100v200v200h-100h-100v-200v-200h-100h-100v450v450h50h50v50v50h50h50v50v50h-100h-100v100zM500 700v100h-100h-100v-100v-100h100h100 v100z" />
<glyph unicode="&#xc5;" d="M200 1350v50h200h200v-50v-50h50h50v-50v-50h-50h-50v-50v-50h-50h-50v-50v-50h50h50v-50v-50h50h50v-450v-450h-100h-100v200v200h-100h-100v-200v-200h-100h-100v450v450h50h50v50v50h50h50v50v50h-50h-50v50v50h-50h-50v50v50h50h50v50zM500 1250v50h-100h-100v-50 v-50h100h100v50zM500 700v100h-100h-100v-100v-100h100h100v100z" />
<glyph unicode="&#xc6;" d="M200 1250v50h250h250v-100v-100h-100h-100v-150v-150h100h100v-100v-100h-100h-100v-200v-200h100h100v-100v-100h-200h-200v200v200h-50h-50v-200v-200h-100h-100v550v550h50h50v50v50h50h50v50zM300 800v200h-50h-50v-200v-200h50h50v200z" />
<glyph unicode="&#xc7;" d="M200 1150v50h200h200v-50v-50h50h50v-150v-150h-100h-100v100v100h-100h-100v-400v-400h100h100v100v100h100h100v-150v-150h-50h-50v-100v-100h-50h-50v-50v-50h-150h-150v50v50h100h100v50v50h-100h-100v50v50h-50h-50v500v500h50h50v50z" />
<glyph unicode="&#xc8;" d="M100 500v500h300h300v-100v-100h-200h-200v-50v-50h150h150v-100v-100h-150h-150v-150v-150h200h200v-100v-100h-300h-300v500zM100 1350v50h100h100v-50v-50h50h50v-50v-50h50h50v-50v-50h-100h-100v50v50h-50h-50v50v50h-50h-50v50z" />
<glyph unicode="&#xc9;" d="M100 500v500h300h300v-100v-100h-200h-200v-50v-50h150h150v-100v-100h-150h-150v-150v-150h200h200v-100v-100h-300h-300v500zM500 1350v50h100h100v-50v-50h-50h-50v-50v-50h-50h-50v-50v-50h-100h-100v50v50h50h50v50v50h50h50v50z" />
<glyph unicode="&#xca;" d="M100 500v500h300h300v-100v-100h-200h-200v-50v-50h150h150v-100v-100h-150h-150v-150v-150h200h200v-100v-100h-300h-300v500zM300 1350v50h100h100v-50v-50h50h50v-50v-50h50h50v-50v-50h-100h-100v50v50h-100h-100v-50v-50h-100h-100v50v50h50h50v50v50h50h50v50z" />
<glyph unicode="&#xcb;" d="M100 500v500h300h300v-100v-100h-200h-200v-50v-50h150h150v-100v-100h-150h-150v-150v-150h200h200v-100v-100h-300h-300v500zM500 1200v100h100h100v-100v-100h-100h-100v100zM100 1200v100h100h100v-100v-100h-100h-100v100z" />
<glyph unicode="&#xcc;" d="M100 900v100h300h300v-100v-100h-100h-100v-300v-300h100h100v-100v-100h-300h-300v100v100h100h100v300v300h-100h-100v100zM100 1350v50h100h100v-50v-50h50h50v-50v-50h50h50v-50v-50h-100h-100v50v50h-50h-50v50v50h-50h-50v50z" />
<glyph unicode="&#xcd;" d="M100 900v100h300h300v-100v-100h-100h-100v-300v-300h100h100v-100v-100h-300h-300v100v100h100h100v300v300h-100h-100v100zM500 1350v50h100h100v-50v-50h-50h-50v-50v-50h-50h-50v-50v-50h-100h-100v50v50h50h50v50v50h50h50v50z" />
<glyph unicode="&#xce;" d="M100 900v100h300h300v-100v-100h-100h-100v-300v-300h100h100v-100v-100h-300h-300v100v100h100h100v300v300h-100h-100v100zM300 1350v50h100h100v-50v-50h50h50v-50v-50h50h50v-50v-50h-100h-100v50v50h-100h-100v-50v-50h-100h-100v50v50h50h50v50v50h50h50v50z" />
<glyph unicode="&#xcf;" d="M100 900v100h300h300v-100v-100h-100h-100v-300v-300h100h100v-100v-100h-300h-300v100v100h100h100v300v300h-100h-100v100zM500 1200v100h100h100v-100v-100h-100h-100v100zM100 1200v100h100h100v-100v-100h-100h-100v100z" />
<glyph unicode="&#xd0;" d="M100 950v250h200h200v-50v-50h50h50v-50v-50h50h50v-400v-400h-50h-50v-50v-50h-50h-50v-50v-50h-200h-200v250v250h-50h-50v100v100h50h50v250zM400 950v50h-50h-50v-150v-150h50h50v-100v-100h-50h-50v-150v-150h50h50v50v50h50h50v300v300h-50h-50v50z" />
<glyph unicode="&#xd1;" d="M100 450v450h100h100v-100v-100h50h50v-50v-50h50h50v150v150h100h100v-450v-450h-100h-100v150v150h-50h-50v50v50h-50h-50v-200v-200h-100h-100v450zM200 1250v50h100h100v-50v-50h50h50v-50v-50h50h50v100v100h50h50v-100v-100h-50h-50v-50v-50h-100h-100v50v50h-100 h-100v-50v-50h-50h-50v100v100h50h50v50z" />
<glyph unicode="&#xd2;" d="M200 950v50h200h200v-50v-50h50h50v-400v-400h-50h-50v-50v-50h-200h-200v50v50h-50h-50v400v400h50h50v50zM500 500v300h-100h-100v-300v-300h100h100v300zM100 1350v50h100h100v-50v-50h50h50v-50v-50h50h50v-50v-50h-100h-100v50v50h-50h-50v50v50h-50h-50v50z" />
<glyph unicode="&#xd3;" d="M200 950v50h200h200v-50v-50h50h50v-400v-400h-50h-50v-50v-50h-200h-200v50v50h-50h-50v400v400h50h50v50zM500 500v300h-100h-100v-300v-300h100h100v300zM500 1350v50h100h100v-50v-50h-50h-50v-50v-50h-50h-50v-50v-50h-100h-100v50v50h50h50v50v50h50h50v50z" />
<glyph unicode="&#xd4;" d="M200 950v50h200h200v-50v-50h50h50v-400v-400h-50h-50v-50v-50h-200h-200v50v50h-50h-50v400v400h50h50v50zM500 500v300h-100h-100v-300v-300h100h100v300zM300 1350v50h100h100v-50v-50h50h50v-50v-50h50h50v-50v-50h-100h-100v50v50h-100h-100v-50v-50h-100h-100v50 v50h50h50v50v50h50h50v50z" />
<glyph unicode="&#xd5;" d="M200 950v50h200h200v-50v-50h50h50v-400v-400h-50h-50v-50v-50h-200h-200v50v50h-50h-50v400v400h50h50v50zM500 500v300h-100h-100v-300v-300h100h100v300zM200 1350v50h100h100v-50v-50h50h50v-50v-50h50h50v100v100h50h50v-100v-100h-50h-50v-50v-50h-100h-100v50v50 h-100h-100v-50v-50h-50h-50v100v100h50h50v50z" />
<glyph unicode="&#xd6;" d="M200 950v50h200h200v-50v-50h50h50v-400v-400h-50h-50v-50v-50h-200h-200v50v50h-50h-50v400v400h50h50v50zM500 500v300h-100h-100v-300v-300h100h100v300zM500 1200v100h100h100v-100v-100h-100h-100v100zM100 1200v100h100h100v-100v-100h-100h-100v100z" />
<glyph unicode="&#xd7;" d="M100 650v50h100h100v-50v-50h100h100v50v50h100h100v-50v-50h-50h-50v-50v-50h-50h-50v-50v-50h50h50v-50v-50h50h50v-50v-50h-100h-100v50v50h-100h-100v-50v-50h-100h-100v50v50h50h50v50v50h50h50v50v50h-50h-50v50v50h-50h-50v50z" />
<glyph unicode="&#xd8;" d="M700 1200v100h50h50v-100v-100h-50h-50v-500v-500h-50h-50v-50v-50h-200h-200v50v50h-50h-50v-100v-100h-50h-50v100v100h50h50v500v500h50h50v50v50h200h200v-50v-50h50h50v100zM500 900v100h-100h-100v-200v-200h50h50v-100v-100h-50h-50v-100v-100h100h100v200v200 h-50h-50v100v100h50h50v100z" />
<glyph unicode="&#xd9;" d="M100 550v450h100h100v-400v-400h100h100v400v400h100h100v-450v-450h-50h-50v-50v-50h-200h-200v50v50h-50h-50v450zM100 1350v50h100h100v-50v-50h50h50v-50v-50h50h50v-50v-50h-100h-100v50v50h-50h-50v50v50h-50h-50v50z" />
<glyph unicode="&#xda;" d="M100 550v450h100h100v-400v-400h100h100v400v400h100h100v-450v-450h-50h-50v-50v-50h-200h-200v50v50h-50h-50v450zM500 1350v50h100h100v-50v-50h-50h-50v-50v-50h-50h-50v-50v-50h-100h-100v50v50h50h50v50v50h50h50v50z" />
<glyph unicode="&#xdb;" d="M100 550v450h100h100v-400v-400h100h100v400v400h100h100v-450v-450h-50h-50v-50v-50h-200h-200v50v50h-50h-50v450zM300 1350v50h100h100v-50v-50h50h50v-50v-50h50h50v-50v-50h-100h-100v50v50h-100h-100v-50v-50h-100h-100v50v50h50h50v50v50h50h50v50z" />
<glyph unicode="&#xdc;" d="M100 550v450h100h100v-400v-400h100h100v400v400h100h100v-450v-450h-50h-50v-50v-50h-200h-200v50v50h-50h-50v450zM500 1200v100h100h100v-100v-100h-100h-100v100zM100 1200v100h100h100v-100v-100h-100h-100v100z" />
<glyph unicode="&#xdd;" d="M100 800v200h100h100v-200v-200h100h100v200v200h100h100v-200v-200h-50h-50v-100v-100h-50h-50v-200v-200h-100h-100v200v200h-50h-50v100v100h-50h-50v200zM500 1350v50h100h100v-50v-50h-50h-50v-50v-50h-50h-50v-50v-50h-100h-100v50v50h50h50v50v50h50h50v50z" />
<glyph unicode="&#xde;" d="M100 600v600h100h100v-100v-100h150h150v-50v-50h50h50v-250v-250h-50h-50v-50v-50h-150h-150v-150v-150h-100h-100v600zM500 650v150h-100h-100v-150v-150h100h100v150z" />
<glyph unicode="&#xdf;" d="M300 1150v50h100h100v-50v-50h50h50v-50v-50h50h50v-150v-150h-50h-50v-50v-50h50h50v-150v-150h-50h-50v-100v-100h-100h-100v50v50h-50h-50v-100v-100h-50h-50v-50v-50h-50h-50v550v550h50h50v50v50h50h50v50zM500 850v150h-100h-100v-150v-150h100h100v150zM500 450 v150h-100h-100v-150v-150h100h100v150z" />
<glyph unicode="&#xe0;" d="M200 800v100h200h200v-50v-50h50h50v-400v-400h-250h-250v50v50h-50h-50v200v200h50h50v50v50h150h150v50v50h-150h-150v100zM500 300v100h-100h-100v-100v-100h100h100v100zM100 1250v50h100h100v-50v-50h50h50v-50v-50h50h50v-50v-50h-100h-100v50v50h-50h-50v50v50 h-50h-50v50z" />
<glyph unicode="&#xe1;" d="M200 800v100h200h200v-50v-50h50h50v-400v-400h-250h-250v50v50h-50h-50v200v200h50h50v50v50h150h150v50v50h-150h-150v100zM500 300v100h-100h-100v-100v-100h100h100v100zM500 1250v50h100h100v-50v-50h-50h-50v-50v-50h-50h-50v-50v-50h-100h-100v50v50h50h50v50v50 h50h50v50z" />
<glyph unicode="&#xe2;" d="M200 800v100h200h200v-50v-50h50h50v-400v-400h-250h-250v50v50h-50h-50v200v200h50h50v50v50h150h150v50v50h-150h-150v100zM500 300v100h-100h-100v-100v-100h100h100v100zM300 1250v50h100h100v-50v-50h50h50v-50v-50h50h50v-50v-50h-100h-100v50v50h-100h-100v-50 v-50h-100h-100v50v50h50h50v50v50h50h50v50z" />
<glyph unicode="&#xe3;" d="M200 800v100h200h200v-50v-50h50h50v-400v-400h-250h-250v50v50h-50h-50v200v200h50h50v50v50h150h150v50v50h-150h-150v100zM500 300v100h-100h-100v-100v-100h100h100v100zM200 1250v50h100h100v-50v-50h50h50v-50v-50h50h50v100v100h50h50v-100v-100h-50h-50v-50v-50 h-100h-100v50v50h-100h-100v-50v-50h-50h-50v100v100h50h50v50z" />
<glyph unicode="&#xe4;" d="M200 800v100h200h200v-50v-50h50h50v-400v-400h-250h-250v50v50h-50h-50v200v200h50h50v50v50h150h150v50v50h-150h-150v100zM500 300v100h-100h-100v-100v-100h100h100v100zM500 1100v100h100h100v-100v-100h-100h-100v100zM100 1100v100h100h100v-100v-100h-100h-100 v100z" />
<glyph unicode="&#xe5;" d="M200 800v100h200h200v-50v-50h50h50v-400v-400h-250h-250v50v50h-50h-50v200v200h50h50v50v50h150h150v50v50h-150h-150v100zM500 300v100h-100h-100v-100v-100h100h100v100zM300 1250v50h150h150v-50v-50h50h50v-50v-50h-50h-50v-50v-50h-150h-150v50v50h-50h-50v50v50 h50h50v50zM500 1150v50h-50h-50v-50v-50h50h50v50z" />
<glyph unicode="&#xe6;" d="M100 800v100h150h150v-50v-50h50h50v50v50h100h100v-50v-50h50h50v-200v-200h-150h-150v-100v-100h150h150v-100v-100h-350h-350v50v50h-50h-50v200v200h50h50v50v50h100h100v50v50h-100h-100v100zM600 600v100h-50h-50v-100v-100h50h50v100zM300 300v100h-50h-50v-100 v-100h50h50v100z" />
<glyph unicode="&#xe7;" d="M200 850v50h200h200v-100v-100h-150h-150v-250v-250h200h200v-100v-100h-50h-50v-50v-50h-50h-50v-50v-50h-150h-150v50v50h100h100v50v50h-100h-100v50v50h-50h-50v350v350h50h50v50z" />
<glyph unicode="&#xe8;" d="M200 850v50h200h200v-50v-50h50h50v-200v-200h-200h-200v-100v-100h200h200v-100v-100h-250h-250v50v50h-50h-50v350v350h50h50v50zM500 600v100h-100h-100v-100v-100h100h100v100zM100 1250v50h100h100v-50v-50h50h50v-50v-50h50h50v-50v-50h-100h-100v50v50h-50h-50v50 v50h-50h-50v50z" />
<glyph unicode="&#xe9;" d="M200 850v50h200h200v-50v-50h50h50v-200v-200h-200h-200v-100v-100h200h200v-100v-100h-250h-250v50v50h-50h-50v350v350h50h50v50zM500 600v100h-100h-100v-100v-100h100h100v100zM500 1250v50h100h100v-50v-50h-50h-50v-50v-50h-50h-50v-50v-50h-100h-100v50v50h50h50 v50v50h50h50v50z" />
<glyph unicode="&#xea;" d="M200 850v50h200h200v-50v-50h50h50v-200v-200h-200h-200v-100v-100h200h200v-100v-100h-250h-250v50v50h-50h-50v350v350h50h50v50zM500 600v100h-100h-100v-100v-100h100h100v100zM300 1250v50h100h100v-50v-50h50h50v-50v-50h50h50v-50v-50h-100h-100v50v50h-100h-100 v-50v-50h-100h-100v50v50h50h50v50v50h50h50v50z" />
<glyph unicode="&#xeb;" d="M200 850v50h200h200v-50v-50h50h50v-200v-200h-200h-200v-100v-100h200h200v-100v-100h-250h-250v50v50h-50h-50v350v350h50h50v50zM500 600v100h-100h-100v-100v-100h100h100v100zM500 1100v100h100h100v-100v-100h-100h-100v100zM100 1100v100h100h100v-100v-100h-100 h-100v100z" />
<glyph unicode="&#xec;" d="M200 800v100h150h150v-350v-350h50h50v-100v-100h-200h-200v100v100h50h50v250v250h-50h-50v100zM100 1250v50h100h100v-50v-50h50h50v-50v-50h50h50v-50v-50h-100h-100v50v50h-50h-50v50v50h-50h-50v50z" />
<glyph unicode="&#xed;" d="M200 800v100h150h150v-350v-350h50h50v-100v-100h-200h-200v100v100h50h50v250v250h-50h-50v100zM500 1250v50h100h100v-50v-50h-50h-50v-50v-50h-50h-50v-50v-50h-100h-100v50v50h50h50v50v50h50h50v50z" />
<glyph unicode="&#xee;" d="M200 800v100h150h150v-350v-350h50h50v-100v-100h-200h-200v100v100h50h50v250v250h-50h-50v100zM300 1250v50h100h100v-50v-50h50h50v-50v-50h50h50v-50v-50h-100h-100v50v50h-100h-100v-50v-50h-100h-100v50v50h50h50v50v50h50h50v50z" />
<glyph unicode="&#xef;" d="M200 800v100h150h150v-350v-350h50h50v-100v-100h-200h-200v100v100h50h50v250v250h-50h-50v100zM500 1100v100h100h100v-100v-100h-100h-100v100zM100 1100v100h100h100v-100v-100h-100h-100v100z" />
<glyph unicode="&#xf0;" d="M200 1250v50h200h200v-50v-50h-50h-50v-50v-50h50h50v-100v-100h50h50v-400v-400h-50h-50v-50v-50h-200h-200v50v50h-50h-50v350v350h50h50v50v50h100h100v50v50h-100h-100v50v50h50h50v50v50h-50h-50v50zM500 450v250h-100h-100v-250v-250h100h100v250z" />
<glyph unicode="&#xf1;" d="M200 850v50h200h200v-50v-50h50h50v-400v-400h-100h-100v350v350h-100h-100v-350v-350h-100h-100v400v400h50h50v50zM200 1250v50h100h100v-50v-50h50h50v-50v-50h50h50v100v100h50h50v-100v-100h-50h-50v-50v-50h-100h-100v50v50h-100h-100v-50v-50h-50h-50v100v100h50 h50v50z" />
<glyph unicode="&#xf2;" d="M200 850v50h200h200v-50v-50h50h50v-350v-350h-50h-50v-50v-50h-200h-200v50v50h-50h-50v350v350h50h50v50zM500 450v250h-100h-100v-250v-250h100h100v250zM100 1250v50h100h100v-50v-50h50h50v-50v-50h50h50v-50v-50h-100h-100v50v50h-50h-50v50v50h-50h-50v50z" />
<glyph unicode="&#xf3;" d="M200 850v50h200h200v-50v-50h50h50v-350v-350h-50h-50v-50v-50h-200h-200v50v50h-50h-50v350v350h50h50v50zM500 450v250h-100h-100v-250v-250h100h100v250zM500 1250v50h100h100v-50v-50h-50h-50v-50v-50h-50h-50v-50v-50h-100h-100v50v50h50h50v50v50h50h50v50z" />
<glyph unicode="&#xf4;" d="M200 850v50h200h200v-50v-50h50h50v-350v-350h-50h-50v-50v-50h-200h-200v50v50h-50h-50v350v350h50h50v50zM500 450v250h-100h-100v-250v-250h100h100v250zM300 1250v50h100h100v-50v-50h50h50v-50v-50h50h50v-50v-50h-100h-100v50v50h-100h-100v-50v-50h-100h-100v50 v50h50h50v50v50h50h50v50z" />
<glyph unicode="&#xf5;" d="M200 850v50h200h200v-50v-50h50h50v-350v-350h-50h-50v-50v-50h-200h-200v50v50h-50h-50v350v350h50h50v50zM500 450v250h-100h-100v-250v-250h100h100v250zM200 1250v50h100h100v-50v-50h50h50v-50v-50h50h50v100v100h50h50v-100v-100h-50h-50v-50v-50h-100h-100v50v50 h-100h-100v-50v-50h-50h-50v100v100h50h50v50z" />
<glyph unicode="&#xf6;" d="M200 850v50h200h200v-50v-50h50h50v-350v-350h-50h-50v-50v-50h-200h-200v50v50h-50h-50v350v350h50h50v50zM500 450v250h-100h-100v-250v-250h100h100v250zM500 1100v100h100h100v-100v-100h-100h-100v100zM100 1100v100h100h100v-100v-100h-100h-100v100z" />
<glyph unicode="&#xf7;" d="M300 400v100h100h100v-100v-100h-100h-100v100zM100 700v100h300h300v-100v-100h-300h-300v100zM300 1000v100h100h100v-100v-100h-100h-100v100z" />
<glyph unicode="&#xf8;" d="M700 900v100h50h50v-100v-100h-50h-50v-350v-350h-50h-50v-50v-50h-200h-200v50v50h-50h-50v-100v-100h-50h-50v100v100h50h50v350v350h50h50v50v50h200h200v-50v-50h50h50v100zM500 650v50h-100h-100v-100v-100h50h50v50v50h50h50v50zM500 300v100h-50h-50v-50v-50h-50 h-50v-50v-50h100h100v100z" />
<glyph unicode="&#xf9;" d="M100 500v400h100h100v-350v-350h100h100v350v350h100h100v-450v-450h-250h-250v50v50h-50h-50v400zM100 1250v50h100h100v-50v-50h50h50v-50v-50h50h50v-50v-50h-100h-100v50v50h-50h-50v50v50h-50h-50v50z" />
<glyph unicode="&#xfa;" d="M100 500v400h100h100v-350v-350h100h100v350v350h100h100v-450v-450h-250h-250v50v50h-50h-50v400zM500 1250v50h100h100v-50v-50h-50h-50v-50v-50h-50h-50v-50v-50h-100h-100v50v50h50h50v50v50h50h50v50z" />
<glyph unicode="&#xfb;" d="M100 500v400h100h100v-350v-350h100h100v350v350h100h100v-450v-450h-250h-250v50v50h-50h-50v400zM300 1250v50h100h100v-50v-50h50h50v-50v-50h50h50v-50v-50h-100h-100v50v50h-100h-100v-50v-50h-100h-100v50v50h50h50v50v50h50h50v50z" />
<glyph unicode="&#xfc;" d="M100 500v400h100h100v-350v-350h100h100v350v350h100h100v-450v-450h-250h-250v50v50h-50h-50v400zM500 1100v100h100h100v-100v-100h-100h-100v100zM100 1100v100h100h100v-100v-100h-100h-100v100z" />
<glyph unicode="&#xfd;" d="M100 550v350h100h100v-300v-300h100h100v300v300h100h100v-500v-500h-50h-50v-50v-50h-250h-250v100v100h200h200v50v50h-150h-150v50v50h-50h-50v350zM500 1250v50h100h100v-50v-50h-50h-50v-50v-50h-50h-50v-50v-50h-100h-100v50v50h50h50v50v50h50h50v50z" />
<glyph unicode="&#xfe;" d="M100 500v700h100h100v-150v-150h150h150v-50v-50h50h50v-350v-350h-50h-50v-50v-50h-150h-150v-100v-100h-100h-100v700zM500 450v250h-100h-100v-250v-250h100h100v250z" />
<glyph unicode="&#xff;" d="M100 550v350h100h100v-300v-300h100h100v300v300h100h100v-500v-500h-50h-50v-50v-50h-250h-250v100v100h200h200v50v50h-150h-150v50v50h-50h-50v350zM500 1100v100h100h100v-100v-100h-100h-100v100zM100 1100v100h100h100v-100v-100h-100h-100v100z" />
<glyph unicode="&#x152;" d="M100 1250v50h300h300v-100v-100h-100h-100v-150v-150h100h100v-100v-100h-100h-100v-200v-200h100h100v-100v-100h-300h-300v50v50h-50h-50v550v550h50h50v50zM300 650v450h-50h-50v-450v-450h50h50v450z" />
<glyph unicode="&#x153;" d="M100 850v50h150h150v-50v-50h50h50v50v50h100h100v-50v-50h50h50v-200v-200h-150h-150v-100v-100h150h150v-100v-100h-150h-150v50v50h-50h-50v-50v-50h-150h-150v50v50h-50h-50v350v350h50h50v50zM300 450v250h-50h-50v-250v-250h50h50v250zM600 600v100h-50h-50v-100 v-100h50h50v100z" />
<glyph unicode="&#x160;" d="M100 1350v50h100h100v-50v-50h100h100v50v50h100h100v-50v-50h-50h-50v-50v-50h-50h-50v-50v-50h100h100v-100v-100h-200h-200v-50v-50h50h50v-50v-50h50h50v-50v-50h50h50v-50v-50h50h50v-200v-200h-50h-50v-50v-50h-250h-250v100v100h200h200v100v100h-50h-50v50v50 h-50h-50v50v50h-50h-50v50v50h-50h-50v150v150h50h50v50v50h50h50v50v50h-50h-50v50v50h-50h-50v50z" />
<glyph unicode="&#x161;" d="M200 850v50h250h250v-100v-100h-200h-200v-50v-50h50h50v-50v-50h100h100v-50v-50h50h50v-150v-150h-50h-50v-50v-50h-250h-250v100v100h200h200v50v50h-50h-50v50v50h-100h-100v50v50h-50h-50v150v150h50h50v50zM100 1250v50h100h100v-50v-50h100h100v50v50h100h100v-50 v-50h-50h-50v-50v-50h-50h-50v-50v-50h-100h-100v50v50h-50h-50v50v50h-50h-50v50z" />
<glyph unicode="&#x178;" d="M100 800v200h100h100v-200v-200h100h100v200v200h100h100v-200v-200h-50h-50v-100v-100h-50h-50v-200v-200h-100h-100v200v200h-50h-50v100v100h-50h-50v200zM500 1200v100h100h100v-100v-100h-100h-100v100zM100 1200v100h100h100v-100v-100h-100h-100v100z" />
<glyph unicode="&#x17d;" d="M100 1350v50h100h100v-50v-50h100h100v50v50h100h100v-50v-50h-50h-50v-50v-50h-50h-50v-50v-50h100h100v-100v-100h-50h-50v-50v-50h-50h-50v-100v-100h-50h-50v-100v-100h-50h-50v-100v-100h200h200v-100v-100h-300h-300v200v200h50h50v100v100h50h50v100v100h50h50v50 v50h-150h-150v100v100h100h100v50v50h-50h-50v50v50h-50h-50v50z" />
<glyph unicode="&#x17e;" d="M100 800v100h300h300v-100v-100h-50h-50v-50v-50h-50h-50v-100v-100h-50h-50v-100v-100h150h150v-100v-100h-300h-300v100v100h50h50v100v100h50h50v100v100h50h50v50v50h-150h-150v100zM100 1250v50h100h100v-50v-50h100h100v50v50h100h100v-50v-50h-50h-50v-50v-50h-50 h-50v-50v-50h-100h-100v50v50h-50h-50v50v50h-50h-50v50z" />
<glyph unicode="&#x20ac;" d="M200 1050v50h200h200v-50v-50h50h50v-100v-100h-100h-100v50v50h-100h-100v-100v-100h150h150v-50v-50h-150h-150v-50v-50h150h150v-50v-50h-150h-150v-100v-100h100h100v50v50h100h100v-100v-100h-50h-50v-50v-50h-200h-200v50v50h-50h-50v150v150h-50h-50v50v50h50h50 v50v50h-50h-50v50v50h50h50v150v150h50h50v50z" />
<glyph unicode="&#x25fc;" horiz-adv-x="900" d="M0 900h900v-900h-900v900z" />
</font>
</defs>
</svg>
